<svg width="91" height="30" viewBox="0 0 91 30" fill="none" xmlns="http://www.w3.org/2000/svg">
<rect width="91" height="30" rx="8" fill="#FF8C8C" fill-opacity="0.15"/>
<path d="M9.08 21V8.4H13.247C14.117 8.4 14.933 8.565 15.695 8.895C16.457 9.219 17.126 9.672 17.702 10.254C18.278 10.83 18.728 11.499 19.052 12.261C19.382 13.017 19.547 13.83 19.547 14.7C19.547 15.57 19.382 16.386 19.052 17.148C18.728 17.904 18.278 18.573 17.702 19.155C17.126 19.731 16.457 20.184 15.695 20.514C14.933 20.838 14.117 21 13.247 21H9.08ZM10.952 19.128H13.247C13.859 19.128 14.429 19.014 14.957 18.786C15.491 18.558 15.962 18.24 16.37 17.832C16.784 17.424 17.105 16.953 17.333 16.419C17.561 15.885 17.675 15.312 17.675 14.7C17.675 14.088 17.561 13.515 17.333 12.981C17.105 12.447 16.784 11.976 16.37 11.568C15.962 11.16 15.491 10.842 14.957 10.614C14.429 10.386 13.859 10.272 13.247 10.272H10.952V19.128ZM24.9052 21.234C24.0772 21.234 23.3212 21.021 22.6372 20.595C21.9592 20.169 21.4162 19.599 21.0082 18.885C20.6062 18.165 20.4052 17.37 20.4052 16.5C20.4052 15.84 20.5222 15.225 20.7562 14.655C20.9902 14.079 21.3112 13.575 21.7192 13.143C22.1332 12.705 22.6132 12.363 23.1592 12.117C23.7052 11.871 24.2872 11.748 24.9052 11.748C25.5952 11.748 26.2282 11.892 26.8042 12.18C27.3802 12.462 27.8722 12.855 28.2802 13.359C28.6882 13.857 28.9882 14.433 29.1802 15.087C29.3722 15.735 29.4292 16.425 29.3512 17.157H22.4122C22.4902 17.571 22.6402 17.946 22.8622 18.282C23.0902 18.612 23.3782 18.873 23.7262 19.065C24.0802 19.257 24.4732 19.356 24.9052 19.362C25.3612 19.362 25.7752 19.248 26.1472 19.02C26.5252 18.792 26.8342 18.477 27.0742 18.075L28.9732 18.516C28.6132 19.314 28.0702 19.968 27.3442 20.478C26.6182 20.982 25.8052 21.234 24.9052 21.234ZM22.3492 15.726H27.4612C27.4012 15.294 27.2482 14.904 27.0022 14.556C26.7622 14.202 26.4592 13.923 26.0932 13.719C25.7332 13.509 25.3372 13.404 24.9052 13.404C24.4792 13.404 24.0832 13.506 23.7172 13.71C23.3572 13.914 23.0572 14.193 22.8172 14.547C22.5832 14.895 22.4272 15.288 22.3492 15.726ZM30.7187 21V7.5H32.5907V21H30.7187ZM38.581 21.234C37.753 21.234 36.997 21.021 36.313 20.595C35.635 20.169 35.092 19.599 34.684 18.885C34.282 18.165 34.081 17.37 34.081 16.5C34.081 15.84 34.198 15.225 34.432 14.655C34.666 14.079 34.987 13.575 35.395 13.143C35.809 12.705 36.289 12.363 36.835 12.117C37.381 11.871 37.963 11.748 38.581 11.748C39.271 11.748 39.904 11.892 40.48 12.18C41.056 12.462 41.548 12.855 41.956 13.359C42.364 13.857 42.664 14.433 42.856 15.087C43.048 15.735 43.105 16.425 43.027 17.157H36.088C36.166 17.571 36.316 17.946 36.538 18.282C36.766 18.612 37.054 18.873 37.402 19.065C37.756 19.257 38.149 19.356 38.581 19.362C39.037 19.362 39.451 19.248 39.823 19.02C40.201 18.792 40.51 18.477 40.75 18.075L42.649 18.516C42.289 19.314 41.746 19.968 41.02 20.478C40.294 20.982 39.481 21.234 38.581 21.234ZM36.025 15.726H41.137C41.077 15.294 40.924 14.904 40.678 14.556C40.438 14.202 40.135 13.923 39.769 13.719C39.409 13.509 39.013 13.404 38.581 13.404C38.155 13.404 37.759 13.506 37.393 13.71C37.033 13.914 36.733 14.193 36.493 14.547C36.259 14.895 36.103 15.288 36.025 15.726ZM49.2168 13.872H47.3268L47.3178 21H45.4458L45.4548 13.872H44.0238V12H45.4548L45.4458 9.174H47.3178L47.3268 12H49.2168V13.872ZM54.5771 21.234C53.7491 21.234 52.9931 21.021 52.3091 20.595C51.6311 20.169 51.0881 19.599 50.6801 18.885C50.2781 18.165 50.0771 17.37 50.0771 16.5C50.0771 15.84 50.1941 15.225 50.4281 14.655C50.6621 14.079 50.9831 13.575 51.3911 13.143C51.8051 12.705 52.2851 12.363 52.8311 12.117C53.3771 11.871 53.9591 11.748 54.5771 11.748C55.2671 11.748 55.9001 11.892 56.4761 12.18C57.0521 12.462 57.5441 12.855 57.9521 13.359C58.3601 13.857 58.6601 14.433 58.8521 15.087C59.0441 15.735 59.1011 16.425 59.0231 17.157H52.0841C52.1621 17.571 52.3121 17.946 52.5341 18.282C52.7621 18.612 53.0501 18.873 53.3981 19.065C53.7521 19.257 54.1451 19.356 54.5771 19.362C55.0331 19.362 55.4471 19.248 55.8191 19.02C56.1971 18.792 56.5061 18.477 56.7461 18.075L58.6451 18.516C58.2851 19.314 57.7421 19.968 57.0161 20.478C56.2901 20.982 55.4771 21.234 54.5771 21.234ZM52.0211 15.726H57.1331C57.0731 15.294 56.9201 14.904 56.6741 14.556C56.4341 14.202 56.1311 13.923 55.7651 13.719C55.4051 13.509 55.0091 13.404 54.5771 13.404C54.1511 13.404 53.7551 13.506 53.3891 13.71C53.0291 13.914 52.7291 14.193 52.4891 14.547C52.2551 14.895 52.0991 15.288 52.0211 15.726ZM71.998 12H73.87V21H71.989L71.917 19.695C71.653 20.157 71.296 20.529 70.846 20.811C70.396 21.093 69.865 21.234 69.253 21.234C68.593 21.234 67.972 21.111 67.39 20.865C66.808 20.613 66.295 20.265 65.851 19.821C65.413 19.377 65.071 18.867 64.825 18.291C64.579 17.709 64.456 17.085 64.456 16.419C64.456 15.777 64.576 15.174 64.816 14.61C65.056 14.04 65.389 13.542 65.815 13.116C66.241 12.69 66.733 12.357 67.291 12.117C67.855 11.871 68.458 11.748 69.1 11.748C69.754 11.748 70.33 11.898 70.828 12.198C71.332 12.492 71.749 12.87 72.079 13.332L71.998 12ZM69.208 19.425C69.736 19.425 70.198 19.296 70.594 19.038C70.99 18.774 71.296 18.42 71.512 17.976C71.734 17.532 71.845 17.04 71.845 16.5C71.845 15.954 71.734 15.459 71.512 15.015C71.29 14.571 70.981 14.22 70.585 13.962C70.195 13.698 69.736 13.566 69.208 13.566C68.686 13.566 68.209 13.698 67.777 13.962C67.345 14.226 67.003 14.58 66.751 15.024C66.499 15.468 66.373 15.96 66.373 16.5C66.373 17.046 66.502 17.541 66.76 17.985C67.024 18.423 67.369 18.774 67.795 19.038C68.227 19.296 68.698 19.425 69.208 19.425ZM75.7363 21V7.5H77.6083V21H75.7363ZM79.7616 21V7.5H81.6336V21H79.7616Z" fill="#FF5E5E"/>
</svg>
