<svg width="148" height="144" viewBox="0 0 148 144" fill="none" xmlns="http://www.w3.org/2000/svg">
<g clip-path="url(#clip0_2_232)">
<path d="M93.9565 32.3851H54.0769C53.1682 32.3862 52.2969 32.7466 51.6543 33.3871C51.0117 34.0276 50.6502 34.8961 50.6491 35.8019V124.148L50.192 124.287L40.4089 127.274C39.9453 127.415 39.4445 127.366 39.0165 127.14C38.5885 126.913 38.2682 126.526 38.1261 126.064L9.02582 31.3168C8.8842 30.8547 8.93247 30.3554 9.16001 29.9287C9.38755 29.502 9.77575 29.1828 10.2393 29.0412L25.315 24.44L69.0201 11.1054L84.0957 6.50414C84.3252 6.43376 84.5663 6.40917 84.8052 6.43177C85.0442 6.45437 85.2764 6.52372 85.4884 6.63585C85.7005 6.74799 85.8883 6.9007 86.041 7.08526C86.1938 7.26982 86.3086 7.48259 86.3787 7.71141L93.8171 31.9296L93.9565 32.3851Z" fill="#F5F7F9"/>
<path d="M102.659 31.9293L93.6935 2.74091C93.5444 2.25458 93.3005 1.8023 92.976 1.40994C92.6514 1.01757 92.2524 0.692804 91.8019 0.454189C91.3513 0.215574 90.858 0.0677877 90.3501 0.0192811C89.8423 -0.0292256 89.3298 0.0224978 88.842 0.17149L67.6464 6.63832L23.9437 19.9752L2.74816 26.4443C1.76352 26.7456 0.939075 27.4241 0.45578 28.3308C-0.0275146 29.2374 -0.130173 30.2981 0.170342 31.2802L30.8108 131.034C31.0549 131.827 31.5475 132.521 32.2162 133.014C32.885 133.507 33.6947 133.774 34.5266 133.775C34.9116 133.775 35.2945 133.717 35.6623 133.604L50.1919 129.171L50.6489 129.03V128.554L50.1919 128.693L35.5275 133.169C34.6584 133.433 33.7197 133.342 32.9173 132.917C32.1149 132.493 31.5143 131.768 31.2473 130.902L0.609201 31.1458C0.476906 30.7168 0.430798 30.2661 0.473515 29.8194C0.516232 29.3726 0.646931 28.9387 0.858137 28.5424C1.06934 28.1461 1.35691 27.7952 1.70435 27.5098C2.0518 27.2245 2.45231 27.0102 2.88294 26.8793L24.0785 20.4102L67.7813 7.07567L88.9769 0.606565C89.3035 0.507205 89.6431 0.456543 89.9846 0.456226C90.7175 0.457866 91.4306 0.693386 92.0195 1.12829C92.6084 1.56319 93.0421 2.17462 93.2571 2.87303L102.181 31.9293L102.323 32.3849H102.798L102.659 31.9293Z" fill="#C6CFDC"/>
<path d="M28.0354 29.1157C27.595 29.1154 27.1662 28.9744 26.8121 28.7134C26.4579 28.4524 26.197 28.0851 26.0676 27.6655L23.1241 18.0821C23.045 17.8247 23.0175 17.5543 23.0433 17.2863C23.0691 17.0183 23.1476 16.758 23.2743 16.5202C23.401 16.2824 23.5735 16.0719 23.7818 15.9006C23.9902 15.7293 24.2304 15.6005 24.4886 15.5218L64.6948 3.25239C65.2164 3.09374 65.7798 3.14785 66.2614 3.40283C66.743 3.65782 67.1034 4.09284 67.2636 4.61243L70.2071 14.1959C70.3661 14.7158 70.3118 15.2773 70.056 15.7573C69.8002 16.2374 69.3638 16.5966 68.8426 16.7564L28.6363 29.0257C28.4416 29.0853 28.2391 29.1156 28.0354 29.1157Z" fill="#007FFF"/>
<path d="M43.4545 10.24C45.9787 10.24 48.025 8.20036 48.025 5.68431C48.025 3.16826 45.9787 1.1286 43.4545 1.1286C40.9303 1.1286 38.884 3.16826 38.884 5.68431C38.884 8.20036 40.9303 10.24 43.4545 10.24Z" fill="#007FFF"/>
<path d="M43.4545 8.56912C45.0529 8.56912 46.3487 7.27754 46.3487 5.6843C46.3487 4.09106 45.0529 2.79948 43.4545 2.79948C41.8561 2.79948 40.5604 4.09106 40.5604 5.6843C40.5604 7.27754 41.8561 8.56912 43.4545 8.56912Z" fill="white"/>
<path d="M137.716 132.611H60.4756C59.9606 132.61 59.4669 132.406 59.1027 132.043C58.7386 131.68 58.5337 131.188 58.5331 130.675V38.4214C58.5337 37.9081 58.7386 37.416 59.1027 37.053C59.4669 36.69 59.9606 36.4858 60.4756 36.4853H137.716C138.231 36.4859 138.725 36.69 139.089 37.053C139.453 37.416 139.658 37.9081 139.659 38.4214V130.675C139.658 131.188 139.453 131.68 139.089 132.043C138.725 132.406 138.231 132.61 137.716 132.611Z" fill="#C6CFDC" fill-opacity="0.5"/>
<path d="M102.181 31.9296H54.0769C53.047 31.931 52.0597 32.3395 51.3315 33.0654C50.6032 33.7912 50.1935 34.7754 50.192 35.8019V128.693L50.6491 128.554V35.8019C50.6502 34.8961 51.0117 34.0276 51.6543 33.3871C52.2969 32.7466 53.1681 32.3862 54.0769 32.3851H102.323L102.181 31.9296ZM144.115 31.9296H54.0769C53.047 31.931 52.0597 32.3395 51.3315 33.0654C50.6032 33.7912 50.1935 34.7754 50.192 35.8019V140.128C50.1935 141.154 50.6032 142.138 51.3315 142.864C52.0597 143.59 53.047 143.999 54.0769 144H144.115C145.145 143.999 146.132 143.59 146.861 142.864C147.589 142.138 147.999 141.154 148 140.128V35.8019C147.999 34.7754 147.589 33.7912 146.861 33.0654C146.132 32.3395 145.145 31.931 144.115 31.9296ZM147.543 140.128C147.542 141.034 147.18 141.902 146.538 142.542C145.895 143.183 145.024 143.543 144.115 143.544H54.0769C53.1681 143.543 52.2969 143.183 51.6543 142.542C51.0117 141.902 50.6502 141.034 50.6491 140.128V35.8019C50.6502 34.8961 51.0117 34.0276 51.6543 33.3871C52.2969 32.7466 53.1681 32.3862 54.0769 32.3851H144.115C145.024 32.3862 145.895 32.7466 146.538 33.3871C147.18 34.0276 147.542 34.8961 147.543 35.8019V140.128Z" fill="#C6CFDC"/>
<path d="M120.12 41.9521H78.0719C77.5266 41.9515 77.0038 41.7353 76.6183 41.351C76.2327 40.9667 76.0158 40.4456 76.0152 39.9021V29.8795C76.0158 29.336 76.2327 28.8149 76.6183 28.4305C77.0039 28.0462 77.5266 27.83 78.0719 27.8294H120.12C120.665 27.83 121.188 28.0462 121.574 28.4305C121.959 28.8149 122.176 29.336 122.177 29.8795V39.9021C122.176 40.4456 121.959 40.9667 121.574 41.351C121.188 41.7353 120.665 41.9515 120.12 41.9521Z" fill="#007FFF"/>
<path d="M99.096 28.5128C101.62 28.5128 103.666 26.4731 103.666 23.9571C103.666 21.441 101.62 19.4014 99.096 19.4014C96.5718 19.4014 94.5255 21.441 94.5255 23.9571C94.5255 26.4731 96.5718 28.5128 99.096 28.5128Z" fill="#007FFF"/>
<path d="M99.096 26.7319C100.634 26.7319 101.88 25.4896 101.88 23.9571C101.88 22.4246 100.634 21.1822 99.096 21.1822C97.5586 21.1822 96.3122 22.4246 96.3122 23.9571C96.3122 25.4896 97.5586 26.7319 99.096 26.7319Z" fill="white"/>
</g>
<defs>
<clipPath id="clip0_2_232">
<rect width="148" height="144" fill="white"/>
</clipPath>
</defs>
</svg>
