<svg width="183" height="26" viewBox="0 0 183 26" fill="none" xmlns="http://www.w3.org/2000/svg">
<path d="M13.0001 8.59277V17.3844" stroke="#C6CFDC" stroke-width="2" stroke-linecap="round" stroke-linejoin="round"/>
<path d="M17.4001 12.9886H8.6001" stroke="#C6CFDC" stroke-width="2" stroke-linecap="round" stroke-linejoin="round"/>
<path fill-rule="evenodd" clip-rule="evenodd" d="M18.6229 1H7.37714C3.45714 1 1 3.7745 1 7.70219V18.2978C1 22.2255 3.44571 25 7.37714 25H18.6229C22.5543 25 25 22.2255 25 18.2978V7.70219C25 3.7745 22.5543 1 18.6229 1Z" stroke="#C6CFDC" stroke-width="2" stroke-linecap="round" stroke-linejoin="round"/>
<path d="M50.301 6.4H52.488L57.069 19H55.089L54.216 16.606H48.573L47.709 19H45.72L50.301 6.4ZM49.266 14.734H53.523L51.39 8.884L49.266 14.734ZM64.9914 5.5H66.8634V19H64.9914V17.677C64.6974 18.145 64.3134 18.523 63.8394 18.811C63.3654 19.093 62.8104 19.234 62.1744 19.234C61.5204 19.234 60.9084 19.111 60.3384 18.865C59.7684 18.619 59.2644 18.28 58.8264 17.848C58.3944 17.41 58.0554 16.906 57.8094 16.336C57.5634 15.766 57.4404 15.154 57.4404 14.5C57.4404 13.846 57.5634 13.234 57.8094 12.664C58.0554 12.088 58.3944 11.584 58.8264 11.152C59.2644 10.714 59.7684 10.372 60.3384 10.126C60.9084 9.88 61.5204 9.757 62.1744 9.757C62.8104 9.757 63.3654 9.901 63.8394 10.189C64.3134 10.471 64.6974 10.843 64.9914 11.305V5.5ZM62.1924 17.425C62.7204 17.425 63.1824 17.296 63.5784 17.038C63.9744 16.774 64.2804 16.42 64.4964 15.976C64.7184 15.532 64.8294 15.04 64.8294 14.5C64.8294 13.954 64.7184 13.459 64.4964 13.015C64.2744 12.571 63.9654 12.22 63.5694 11.962C63.1794 11.698 62.7204 11.566 62.1924 11.566C61.6704 11.566 61.1934 11.698 60.7614 11.962C60.3354 12.226 59.9934 12.58 59.7354 13.024C59.4834 13.468 59.3574 13.96 59.3574 14.5C59.3574 15.046 59.4864 15.541 59.7444 15.985C60.0084 16.423 60.3534 16.774 60.7794 17.038C61.2114 17.296 61.6824 17.425 62.1924 17.425ZM75.9074 5.5H77.7794V19H75.9074V17.677C75.6134 18.145 75.2294 18.523 74.7554 18.811C74.2814 19.093 73.7264 19.234 73.0904 19.234C72.4364 19.234 71.8244 19.111 71.2544 18.865C70.6844 18.619 70.1804 18.28 69.7424 17.848C69.3104 17.41 68.9714 16.906 68.7254 16.336C68.4794 15.766 68.3564 15.154 68.3564 14.5C68.3564 13.846 68.4794 13.234 68.7254 12.664C68.9714 12.088 69.3104 11.584 69.7424 11.152C70.1804 10.714 70.6844 10.372 71.2544 10.126C71.8244 9.88 72.4364 9.757 73.0904 9.757C73.7264 9.757 74.2814 9.901 74.7554 10.189C75.2294 10.471 75.6134 10.843 75.9074 11.305V5.5ZM73.1084 17.425C73.6364 17.425 74.0984 17.296 74.4944 17.038C74.8904 16.774 75.1964 16.42 75.4124 15.976C75.6344 15.532 75.7454 15.04 75.7454 14.5C75.7454 13.954 75.6344 13.459 75.4124 13.015C75.1904 12.571 74.8814 12.22 74.4854 11.962C74.0954 11.698 73.6364 11.566 73.1084 11.566C72.5864 11.566 72.1094 11.698 71.6774 11.962C71.2514 12.226 70.9094 12.58 70.6514 13.024C70.3994 13.468 70.2734 13.96 70.2734 14.5C70.2734 15.046 70.4024 15.541 70.6604 15.985C70.9244 16.423 71.2694 16.774 71.6954 17.038C72.1274 17.296 72.5984 17.425 73.1084 17.425ZM91.2617 10H93.1337V19H91.2527L91.1807 17.695C90.9167 18.157 90.5597 18.529 90.1097 18.811C89.6597 19.093 89.1287 19.234 88.5167 19.234C87.8567 19.234 87.2357 19.111 86.6537 18.865C86.0717 18.613 85.5587 18.265 85.1147 17.821C84.6767 17.377 84.3347 16.867 84.0887 16.291C83.8427 15.709 83.7197 15.085 83.7197 14.419C83.7197 13.777 83.8397 13.174 84.0797 12.61C84.3197 12.04 84.6527 11.542 85.0787 11.116C85.5047 10.69 85.9967 10.357 86.5547 10.117C87.1187 9.871 87.7217 9.748 88.3637 9.748C89.0177 9.748 89.5937 9.898 90.0917 10.198C90.5957 10.492 91.0127 10.87 91.3427 11.332L91.2617 10ZM88.4717 17.425C88.9997 17.425 89.4617 17.296 89.8577 17.038C90.2537 16.774 90.5597 16.42 90.7757 15.976C90.9977 15.532 91.1087 15.04 91.1087 14.5C91.1087 13.954 90.9977 13.459 90.7757 13.015C90.5537 12.571 90.2447 12.22 89.8487 11.962C89.4587 11.698 88.9997 11.566 88.4717 11.566C87.9497 11.566 87.4727 11.698 87.0407 11.962C86.6087 12.226 86.2667 12.58 86.0147 13.024C85.7627 13.468 85.6367 13.96 85.6367 14.5C85.6367 15.046 85.7657 15.541 86.0237 15.985C86.2877 16.423 86.6327 16.774 87.0587 17.038C87.4907 17.296 87.9617 17.425 88.4717 17.425ZM107.354 13.357V19H105.482V13.816C105.482 13.414 105.383 13.048 105.185 12.718C104.993 12.388 104.732 12.127 104.402 11.935C104.078 11.737 103.712 11.638 103.304 11.638C102.908 11.638 102.545 11.737 102.215 11.935C101.885 12.127 101.621 12.388 101.423 12.718C101.225 13.048 101.126 13.414 101.126 13.816V19H99.2538V10H101.126V10.954C101.438 10.582 101.822 10.288 102.278 10.072C102.734 9.856 103.226 9.748 103.754 9.748C104.42 9.748 105.026 9.91 105.572 10.234C106.118 10.558 106.55 10.993 106.868 11.539C107.192 12.085 107.354 12.691 107.354 13.357ZM112.935 19.234C112.107 19.234 111.351 19.021 110.667 18.595C109.989 18.169 109.446 17.599 109.038 16.885C108.636 16.165 108.435 15.37 108.435 14.5C108.435 13.84 108.552 13.225 108.786 12.655C109.02 12.079 109.341 11.575 109.749 11.143C110.163 10.705 110.643 10.363 111.189 10.117C111.735 9.871 112.317 9.748 112.935 9.748C113.625 9.748 114.258 9.892 114.834 10.18C115.41 10.462 115.902 10.855 116.31 11.359C116.718 11.857 117.018 12.433 117.21 13.087C117.402 13.735 117.459 14.425 117.381 15.157H110.442C110.52 15.571 110.67 15.946 110.892 16.282C111.12 16.612 111.408 16.873 111.756 17.065C112.11 17.257 112.503 17.356 112.935 17.362C113.391 17.362 113.805 17.248 114.177 17.02C114.555 16.792 114.864 16.477 115.104 16.075L117.003 16.516C116.643 17.314 116.1 17.968 115.374 18.478C114.648 18.982 113.835 19.234 112.935 19.234ZM110.379 13.726H115.491C115.431 13.294 115.278 12.904 115.032 12.556C114.792 12.202 114.489 11.923 114.123 11.719C113.763 11.509 113.367 11.404 112.935 11.404C112.509 11.404 112.113 11.506 111.747 11.71C111.387 11.914 111.087 12.193 110.847 12.547C110.613 12.895 110.457 13.288 110.379 13.726ZM122.787 19H120.924L117.909 10H119.745L121.869 16.318L123.975 10H125.865L127.971 16.318L130.086 10H131.922L128.916 19H127.035L124.911 12.637L122.787 19ZM142.625 11.872H140.735L140.726 19H138.854L138.863 11.872H137.432V10H138.863L138.854 7.174H140.726L140.735 10H142.625V11.872ZM151.027 10H152.899V19H151.018L150.946 17.695C150.682 18.157 150.325 18.529 149.875 18.811C149.425 19.093 148.894 19.234 148.282 19.234C147.622 19.234 147.001 19.111 146.419 18.865C145.837 18.613 145.324 18.265 144.88 17.821C144.442 17.377 144.1 16.867 143.854 16.291C143.608 15.709 143.485 15.085 143.485 14.419C143.485 13.777 143.605 13.174 143.845 12.61C144.085 12.04 144.418 11.542 144.844 11.116C145.27 10.69 145.762 10.357 146.32 10.117C146.884 9.871 147.487 9.748 148.129 9.748C148.783 9.748 149.359 9.898 149.857 10.198C150.361 10.492 150.778 10.87 151.108 11.332L151.027 10ZM148.237 17.425C148.765 17.425 149.227 17.296 149.623 17.038C150.019 16.774 150.325 16.42 150.541 15.976C150.763 15.532 150.874 15.04 150.874 14.5C150.874 13.954 150.763 13.459 150.541 13.015C150.319 12.571 150.01 12.22 149.614 11.962C149.224 11.698 148.765 11.566 148.237 11.566C147.715 11.566 147.238 11.698 146.806 11.962C146.374 12.226 146.032 12.58 145.78 13.024C145.528 13.468 145.402 13.96 145.402 14.5C145.402 15.046 145.531 15.541 145.789 15.985C146.053 16.423 146.398 16.774 146.824 17.038C147.256 17.296 147.727 17.425 148.237 17.425ZM157.395 19.171C156.921 19.141 156.459 19.045 156.009 18.883C155.559 18.721 155.163 18.502 154.821 18.226C154.485 17.944 154.233 17.614 154.065 17.236L155.658 16.552C155.736 16.714 155.871 16.873 156.063 17.029C156.261 17.185 156.492 17.314 156.756 17.416C157.02 17.512 157.296 17.56 157.584 17.56C157.866 17.56 158.127 17.521 158.367 17.443C158.613 17.359 158.814 17.233 158.97 17.065C159.126 16.897 159.204 16.696 159.204 16.462C159.204 16.198 159.114 15.994 158.934 15.85C158.76 15.7 158.541 15.586 158.277 15.508C158.013 15.43 157.749 15.355 157.485 15.283C156.897 15.151 156.357 14.971 155.865 14.743C155.379 14.509 154.992 14.212 154.704 13.852C154.416 13.486 154.272 13.039 154.272 12.511C154.272 11.935 154.428 11.437 154.74 11.017C155.052 10.591 155.46 10.264 155.964 10.036C156.474 9.808 157.017 9.694 157.593 9.694C158.313 9.694 158.973 9.847 159.573 10.153C160.173 10.459 160.632 10.879 160.95 11.413L159.465 12.295C159.375 12.115 159.24 11.953 159.06 11.809C158.88 11.665 158.676 11.551 158.448 11.467C158.22 11.377 157.983 11.326 157.737 11.314C157.431 11.302 157.146 11.338 156.882 11.422C156.624 11.5 156.417 11.626 156.261 11.8C156.105 11.974 156.027 12.196 156.027 12.466C156.027 12.73 156.12 12.928 156.306 13.06C156.492 13.186 156.726 13.288 157.008 13.366C157.296 13.444 157.59 13.531 157.89 13.627C158.424 13.795 158.925 14.002 159.393 14.248C159.861 14.488 160.239 14.785 160.527 15.139C160.815 15.493 160.953 15.925 160.941 16.435C160.941 16.999 160.77 17.494 160.428 17.92C160.092 18.346 159.654 18.67 159.114 18.892C158.574 19.114 158.001 19.207 157.395 19.171ZM170.177 19H168.017L165.803 15.184L164.354 16.912V19H162.482V5.5H164.354V14.005L167.702 10H170.15L167.081 13.663L170.177 19ZM172.455 19.234C172.179 19.234 171.945 19.138 171.753 18.946C171.567 18.754 171.474 18.52 171.474 18.244C171.474 17.974 171.567 17.743 171.753 17.551C171.945 17.359 172.179 17.263 172.455 17.263C172.731 17.263 172.965 17.359 173.157 17.551C173.349 17.743 173.445 17.974 173.445 18.244C173.445 18.52 173.349 18.754 173.157 18.946C172.965 19.138 172.731 19.234 172.455 19.234ZM176.234 19.234C175.958 19.234 175.724 19.138 175.532 18.946C175.346 18.754 175.253 18.52 175.253 18.244C175.253 17.974 175.346 17.743 175.532 17.551C175.724 17.359 175.958 17.263 176.234 17.263C176.51 17.263 176.744 17.359 176.936 17.551C177.128 17.743 177.224 17.974 177.224 18.244C177.224 18.52 177.128 18.754 176.936 18.946C176.744 19.138 176.51 19.234 176.234 19.234ZM180.014 19.234C179.738 19.234 179.504 19.138 179.312 18.946C179.126 18.754 179.033 18.52 179.033 18.244C179.033 17.974 179.126 17.743 179.312 17.551C179.504 17.359 179.738 17.263 180.014 17.263C180.29 17.263 180.524 17.359 180.716 17.551C180.908 17.743 181.004 17.974 181.004 18.244C181.004 18.52 180.908 18.754 180.716 18.946C180.524 19.138 180.29 19.234 180.014 19.234Z" fill="#8D9CB8"/>
</svg>
